<svg id="Layer_1" data-name="Layer 1" xmlns="http://www.w3.org/2000/svg" viewBox="0 0 748.8 748.8"><defs><style>.cls-1{fill:#fff;}</style></defs><path class="cls-1" d="M534.55,69A145.24,145.24,0,0,1,679.8,214.25v320.3A145.24,145.24,0,0,1,534.55,679.8H214.25A145.24,145.24,0,0,1,69,534.55V214.25A145.24,145.24,0,0,1,214.25,69h320.3m0-69H214.25C95.93,0,0,95.92,0,214.25v320.3C0,652.88,95.93,748.8,214.25,748.8h320.3c118.33,0,214.25-95.92,214.25-214.25V214.25C748.8,95.92,652.88,0,534.55,0Z"/><path class="cls-1" d="M374.4,253.15a121.24,121.24,0,1,1-85.74,35.51,120.46,120.46,0,0,1,85.74-35.51m0-69c-105.07,0-190.25,85.18-190.25,190.25S269.33,564.65,374.4,564.65,564.65,479.47,564.65,374.4,479.47,184.15,374.4,184.15Z"/><circle class="cls-1" cx="573.65" cy="175.15" r="45.33"/></svg>