<svg id="Layer_1" data-name="Layer 1" xmlns="http://www.w3.org/2000/svg" viewBox="0 0 802.01 315.83"><defs><style>.cls-1{fill:#fff;}</style></defs><path class="cls-1" d="M466.21,296l2.67,8.2c.22.62.4,1.24.59,1.85a43.08,43.08,0,0,0,1.4,4.15q1.17,2.81,2.29,5.65h5.51c-2.38-4.21-5-8.42-7.72-12.64Z"/><path class="cls-1" d="M762.68,126c-15.12-20.13-34.59-35.16-53.41-49.67C678.29,52.45,641.34,40.28,593,38,537.06,35.4,482.06,49.61,424.83,81.45c-3.29,1.82-5.72,1.32-9.31.29-26-7.46-46.24-8.75-65.62-4.2-27.64,6.46-46.65,24-59.87,55.12-4.26,10.05-6.09,20.72-7.9,31.05-.75,4.31-1.52,8.77-2.44,13.11-3.47,16-7.59,29.31-12.61,40.62-1.32,3-2.67,6-4,9h0a209.58,209.58,0,0,0-27.16-.71c-27.85,1.16-35.68,2-59,5.61,4.65-5.81,9.8-11.9,15.19-18.28,14.18-16.74,30.24-35.74,41.72-55.36,13.46-23,18.6-48.06,15.6-66.87C247.2,77,238.16,66.2,227.33,58.91c-8.2-5.55-18.46-8.87-30.47-9.87a103.23,103.23,0,0,0-33.32,3l-1.1.26a15.6,15.6,0,0,0-5.92,2.29c-1.68,1.22-3.06,3.71-4.65,12.28-.85,4.59-1.5,9.55-1.74,11.76-.39,3.41,1.09,5.16,2,5.88s2.9,1.79,6,.62c18.94-7.2,38.71-12.84,54.16,3.65,6.13,6.55,9.14,16.19,6.35,27.18-3.73,12.11-13.95,27.64-21.52,37.9-2.43,3.29-4.93,6.69-7.28,10.08C181.3,176,127.13,241.06,98.41,267.63c-1.75,1.67-3.37,4.51-2.49,7.37a5.48,5.48,0,0,0,4.84,3.76l.35,0a6.13,6.13,0,0,0,1.9-.25l5.52-1.64c21.84-6.53,49-14.66,99.12-25.15,14-2.93,31.22-5.34,47-7.16h0c-3.38,7.24-6.8,14.44-10.15,21.52-3.8,8-14.24,31.08-22.67,49.72h4.9c6.53-14.42,13.33-29.36,16-34.77,6-12.23,11.76-24.68,17.38-37.09,2-4.41,4-8.79,5.92-13.16.59-1.31,1.19-2.63,1.77-3.93h0c.43-.91.82-1.8,1.23-2.7,2.47-5.52,5-11.07,7.47-16.57,5.3-11.74,7.22-24.43,9.07-36.69.54-3.62,1.11-7.33,1.74-11,4.82-27.49,15.72-48,33.29-62.85,16-13.46,35.93-19.23,59.26-17.1,8.48.77,17,2.71,25.31,4.59,4.36,1,8.87,2,13.31,2.86,2,.36,4.77.32,6.66-.84,30-18.7,65.46-31.56,111.6-40.47,43.82-8.48,87.85-4.63,130.82,11.44,10.85,4.05,20.92,11,30.65,17.64,3.22,2.19,6.54,4.47,9.82,6.62A204.11,204.11,0,0,1,758.22,128a34.77,34.77,0,0,1,2.6,4.08l.53.87s0,.08,0,.16a.14.14,0,0,1-.14.1l-.38,0a14.21,14.21,0,0,1-3.08-.44c-30.79-11-62.23-9.3-88.9-6.13-34.49,4.09-70.28,13.14-109.47,27.72-22.68,8.42-41.25,19.41-56.81,33.6a61.33,61.33,0,0,0-6,6.69c-1,1.25-2,2.52-3.08,3.74q-7.38,8.26-14.75,16.55c-6.17,6.91-12.32,13.79-18.45,20.73-14.85,16.73-14.72,23.72.77,39.34,11.31,11.41,23.81,24.88,34,40.88h5.47c-.26-.47-.54-1-.82-1.44C491.06,299,478.75,286.31,466.87,274c-1.69-1.75-3.36-3.46-5-5.21a53,53,0,0,1-5.13-6c-2.5-3.42-4.58-8.63-.33-14,6.83-8.67,14.18-17.24,20.52-24.58,2.31-2.68,4.74-5.32,7.13-7.87,3.92-4.23,8-8.61,11.51-13.28,10.64-14.07,24.79-25.28,43.24-34.28,35.45-17.25,75.79-29.2,123.39-36.56,23.27-3.6,44.46-4.21,64.82-1.86a125.36,125.36,0,0,1,17.2,3.67c3.64,1,7.39,1.93,11.15,2.7.39.07.82.18,1.26.28,3,.67,7,1.59,8.92-1.18C767.69,132.72,764.55,128.53,762.68,126Z"/><path class="cls-1" d="M448.7,282.18a100.73,100.73,0,0,1-8.16-22.2c-2.64-11.47.9-22,10.8-32.21,6.62-6.82,13.13-13.61,20-20.79q4.11-4.23,8.31-8.64l-6.49-4.23c-6-3.91-11.71-7.62-17.13-11.7-3.69-2.79-6-7.33-7-9.77-2.78-6.66-5.5-13.44-8.13-20-4.11-10.29-8.37-21-13.06-31.19a59.82,59.82,0,0,0-12.58-17.21l-.09-.12a6.1,6.1,0,0,0-3-2.26c-19.13-4.15-36.3-6.82-52.75,2.57-13.58,7.76-19.43,21-17.35,39.25a176.67,176.67,0,0,1-2.33,56.8c-.95,4.61-1.95,9.2-3,13.8-2.69,12.36-5.46,25.13-7.4,37.8-3.13,20.48-5.95,41.89-8.41,63.77H462.87c-2.69-10.69-7.54-20.39-12.63-30.57ZM404.62,156.57a6.47,6.47,0,0,1-3.19.71,10.23,10.23,0,0,1-5.61-2.05c-8.17-5.64-12.69-14-13.43-25v-.12c.08-3.19,1.26-5.7,3.29-7a7.21,7.21,0,0,1,6.77-.31c8.21,3.26,16.87,16.66,16.53,25.56C408.83,152.26,407.23,155.26,404.62,156.57Z"/><path class="cls-1" d="M640.12,59.8c-.23-.63-1.35-1.66-5.37-2.95-12.32-4-24.91-5.42-37.28-5.69-7.64-.16-15.2.13-22.57.56C536.31,54,496.47,64.43,449.52,84.58a80.48,80.48,0,0,0-9.28,5c-1.21.72-2.43,1.45-3.66,2.14-.81.46-1.61,1-2.62,1.72l-.79.54c14.71,14.92,24.92,33.79,32,59.15l3.17-1.63c2.79-1.43,5.19-2.66,7.57-4,35.23-19.81,65.83-33,96.3-41.61A347.29,347.29,0,0,1,640.67,93.8a6.52,6.52,0,0,0,4.23-3.59c2.71-10-.82-19.62-4.22-28.89Z"/><path class="cls-1" d="M487.55,157.85c-4,2.59-8.2,5.27-12.27,8a44.85,44.85,0,0,0-4,3.06L470,169.93c5.06,4.68,11.08,7.3,16.91,9.84,1.24.54,2.48,1.07,3.64,1.61a4.93,4.93,0,0,0,2.33-1.17C511.8,164,534,153.48,555.13,144.58c23.41-9.85,48.48-17.69,76.62-24a199.82,199.82,0,0,1,22.54-3.22c3.25-.34,6.62-.68,9.91-1.1,1.72-.22,3.44-.39,5.66-.62l1.66-.16c-6.54-6.55-12.14-10.29-20-10.26a279.61,279.61,0,0,0-154.08,46.23C494.14,153.62,490.84,155.73,487.55,157.85Z"/><path class="cls-1" d="M149.09,169.87c7.42-9.92,17.8-33.15,12.16-47.38-3.15-7.93-7.8-12.44-15.39-15.71h0a2.74,2.74,0,0,0-.48-.17,55.87,55.87,0,0,0-14.29-1.7,100.32,100.32,0,0,0-40.63,9.31c-2.47,1.19-4.38-.09-4.23-2.82.53-9.72.91-9,1.65-18.18,1.35-17,2.75-32.18,2.65-49.79,0-1.13.06-3.62-2.06-5s-5.73-.34-6.61.08c-2.24,1-4.48,2.1-6.64,3.15-2.64,1.27-5.36,2.58-8,3.79a7.84,7.84,0,0,0-4.9,7.47c-1.17,16.49-2.55,30.81-3.88,47-4,49.08-8.92,99.84-8,150v.27a3.7,3.7,0,0,0,5.87,2.93l.52-.39C88.17,230,121.41,206.86,149.09,169.87ZM84.47,194.71c-3,1.08-4.74-.07-4.47-3.29.47-6,1.06-12,1.65-18,.45-4.42,1.73-18.86,2.13-23.34a3.4,3.4,0,0,1,.48-1.47c4.11-6.69,20.08-15.6,27.34-18,9.11-3,20-1.49,22.25.52,2,1.79,2.16,2.94,1.52,6.77C129.21,166.67,92.35,192,84.47,194.71Z"/></svg>